PathFileType	4	(X/Y/Z)	/Users/niels/Desktop/University/Third Semester/Perception and Action/Exam/Gymnastics Motion Tracking/Code for Gym Tracking/Analyzed Data/Webcam_Backflip/id4_2_baseline_Sports2D/id4_2_baseline_Sports2D_px_person00.trc
DataRate	CameraRate	NumFrames	NumMarkers	Units	OrigDataRate	OrigDataStartFrame	OrigNumFrames
29.81132075471698	29.81132075471698	12	22	m	29.81132075471698	79	159
Frame#	Time	Hip			RHip			RKnee			RAnkle			RBigToe			RSmallToe			RHeel			LHip			LKnee			LAnkle			LBigToe			LSmallToe			LHeel			Neck			Head			Nose			RShoulder			RElbow			RWrist			LShoulder			LElbow			LWrist		
		X1	Y1	Z1	X2	Y2	Z2	X3	Y3	Z3	X4	Y4	Z4	X5	Y5	Z5	X6	Y6	Z6	X7	Y7	Z7	X8	Y8	Z8	X9	Y9	Z9	X10	Y10	Z10	X11	Y11	Z11	X12	Y12	Z12	X13	Y13	Z13	X14	Y14	Z14	X15	Y15	Z15	X16	Y16	Z16	X17	Y17	Z17	X18	Y18	Z18	X19	Y19	Z19	X20	Y20	Z20	X21	Y21	Z21	X22	Y22	Z22
79	2.65	0.896447777878956	-0.5983826873269555	0.0	0.8951914861757206	-0.5974614573445186	0.0	0.9113982183192498	-0.7093844428845325	0.0	0.8826753637734083	-0.8143490730371659	0.0	0.9212250281310249	-0.8267733309671743	0.0	0.9137624553981967	-0.8335504013374722	0.0	0.873867348471998	-0.8255267632658945	0.0	0.8975946141349882	-0.5948014092499174	0.0	0.9649471992405538	-0.6789964065527034	0.0	0.9391024494645334	-0.7821039351754182	0.0	0.969763533977599	-0.810700043613715	0.0	0.967187540507741	-0.8036058663524244	0.0	0.9285505766530758	-0.796475014161226	0.0	0.9213056465624518	-0.4510021561086946	0.0	0.9674737701918024	-0.387649001061486	0.0	0.9559815825698467	-0.4243657104657697	0.0	0.9305650482428858	-0.4593512289951043	0.0	1.0005530971340655	-0.41659234086163427	0.0	1.0368420240310872	-0.35570836123156213	0.0	0.9031551657689333	-0.45271511032763756	0.0	0.9207250911429652	-0.4036998498098313	0.0	0.956301857248305	-0.36041013678626715	0.0
80	2.6835443037974684	0.8952188114333093	-0.6009302377695119	0.0	0.8949358009234513	-0.6005775954153197	0.0	0.916065204432905	-0.7099292275345352	0.0	0.8863395577262708	-0.8147598546497048	0.0	0.9283258329924327	-0.827759922267901	0.0	0.9228047192038333	-0.8345637283272687	0.0	0.8769131521093562	-0.8258772089975261	0.0	0.8947643253205656	-0.5979947904122558	0.0	0.9591888841358309	-0.6856525395413399	0.0	0.9303605430544155	-0.787772336511307	0.0	0.9628080503913442	-0.8152873346072667	0.0	0.9587948926406585	-0.8087383370085479	0.0	0.9191114908227813	-0.8021297339281832	0.0	0.9207639599316026	-0.45459247078933107	0.0	0.9675789052376442	-0.39257587023357254	0.0	0.9552767993077409	-0.4284313212700509	0.0	0.9297998246242538	-0.4629262041486078	0.0	1.0002071742365737	-0.42067909946293697	0.0	1.036806843454513	-0.3601550017049413	0.0	0.9027160781063434	-0.4561241330163484	0.0	0.9220953172188522	-0.40695143048612026	0.0	0.9564838994139847	-0.36296499789630987	0.0
81	2.7170886075949365	0.8945318980353186	-0.6004504731266115	0.0	0.8954540005635617	-0.6006413468261693	0.0	0.922761207053354	-0.706962384667106	0.0	0.89217538044616	-0.8115442993043668	0.0	0.9361905612291967	-0.8258914574864727	0.0	0.9320917097644538	-0.8321819630181198	0.0	0.8821312018720255	-0.8228720668559985	0.0	0.892045594589307	-0.5981579129088377	0.0	0.9517126699457099	-0.6907296235786209	0.0	0.9211656014738139	-0.7926332273314125	0.0	0.9547320275347434	-0.8178219355322989	0.0	0.9491869946707656	-0.8118115016550695	0.0	0.9091724427292183	-0.8070384915901955	0.0	0.9206893534234777	-0.454836139186483	0.0	0.9675937826826374	-0.39394315024315124	0.0	0.9552855004547492	-0.4286657402801755	0.0	0.9294890094269025	-0.4633373822746421	0.0	1.000157540185658	-0.42139456093955224	0.0	1.0372485422881297	-0.3611964681024053	0.0	0.9028767666167179	-0.45646901230800074	0.0	0.9245905120851124	-0.4076370340827683	0.0	0.9578511047495243	-0.36298789647502294	0.0
82	2.750632911392405	0.8945350063239035	-0.5972146312326487	0.0	0.896698858083172	-0.5978024421253552	0.0	0.930502099729205	-0.7013890307057118	0.0	0.8990754252788954	-0.805519194421962	0.0	0.9432418876317844	-0.8217014827484763	0.0	0.939804806844943	-0.827155572882431	0.0	0.8883459684956534	-0.8172898460967947	0.0	0.889966867404049	-0.5954192495118674	0.0	0.9435577116361223	-0.693568612861259	0.0	0.9124463114063859	-0.7958864080247305	0.0	0.9463242574520909	-0.8182660883250423	0.0	0.9395319964194789	-0.8126308434256391	0.0	0.8994626543250037	-0.8102741012397219	0.0	0.9211602601372987	-0.4518547435392515	0.0	0.967587971926781	-0.39164957674916584	0.0	0.9561029706415373	-0.4252460177000491	0.0	0.929766957066894	-0.4606425910324327	0.0	1.000607038813312	-0.41878831977611336	0.0	1.038316659181563	-0.3590309474691558	0.0	0.9037186740781644	-0.45388021558297287	0.0	0.927833306374409	-0.40557917572706736	0.0	0.9601429426751285	-0.3605583034291405	0.0
83	2.784177215189873	0.8954450521014106	-0.5916313353155326	0.0	0.8985066593191725	-0.5924047331230063	0.0	0.9374585234685563	-0.6944556952259334	0.0	0.9046196802561638	-0.7981058876520687	0.0	0.9473932558978618	-0.8162002401221531	0.0	0.943919785281251	-0.8207764982501867	0.0	0.893080525309872	-0.8105520406463963	0.0	0.8892780247844279	-0.59013122059639	0.0	0.9367169366851111	-0.6934974239347964	0.0	0.9062075381119934	-0.7964124313037991	0.0	0.9397527763000126	-0.8164438479018242	0.0	0.9325920640310074	-0.8109283411620076	0.0	0.8917511220092941	-0.8106172714196058	0.0	0.9221878238810866	-0.44612550338429235	0.0	0.9675908716373459	-0.38599288748936167	0.0	0.9576495490442957	-0.4187195264556348	0.0	0.9305421520676251	-0.4552202001210253	0.0	1.001577179596479	-0.41323263210989686	0.0	1.0400440305395044	-0.354073432471975	0.0	0.9052994964019759	-0.4487639145258439	0.0	0.9317207792386993	-0.4008139058793365	0.0	0.9633915271016955	-0.3558413810467176	0.0
84	2.8177215189873417	0.8974086603321486	-0.584218731296051	0.0	0.9006615320619966	-0.5850109076478888	0.0	0.9420011655194425	-0.6872883587392903	0.0	0.9064612895976483	-0.7906269360067694	0.0	0.9470818604306086	-0.8105042810605664	0.0	0.9430796228803885	-0.8143184153075449	0.0	0.8940695696962484	-0.8039596094613337	0.0	0.8905671454922321	-0.5828767064334094	0.0	0.933133634885793	-0.6902935064305605	0.0	0.9044925340031822	-0.793518128465461	0.0	0.9372204988228435	-0.8123591050605374	0.0	0.9310025993362635	-0.8067405544332795	0.0	0.8881423566125173	-0.8073509499763235	0.0	0.9237224822778687	-0.4384030639033826	0.0	0.9676353970744992	-0.37770874200317317	0.0	0.9597358129044431	-0.4099615688898145	0.0	0.9315654647517755	-0.44772564493277334	0.0	1.0028683653862118	-0.4054083756533468	0.0	1.0422894879210995	-0.3469649164459232	0.0	0.9076702763187848	-0.44175734495132135	0.0	0.9364376662716154	-0.39362806733399297	0.0	0.9678725711955699	-0.34910735093272893	0.0
85	2.85126582278481	0.900297050216854	-0.5756214169202905	0.0	0.902989408347926	-0.5763830021924593	0.0	0.9439816512892477	-0.680464807841944	0.0	0.9043863429094754	-0.7835284667165117	0.0	0.9425150929569689	-0.805222194378383	0.0	0.9376362158651632	-0.8083886696860902	0.0	0.8913011873918703	-0.7978162524656994	0.0	0.8938145754786305	-0.5744090999990598	0.0	0.9331848026732176	-0.684542840979294	0.0	0.9075214392227287	-0.7876080978378859	0.0	0.9387979759349796	-0.8065595612865719	0.0	0.9345522583276304	-0.8007305965296657	0.0	0.8895090153829596	-0.8009260227945706	0.0	0.9256551202871597	-0.42956311120564683	0.0	0.9678115556614829	-0.36784822444368626	0.0	0.9621355903933778	-0.40003563976249523	0.0	0.9325508332721881	-0.4389659356688269	0.0	1.004115455642665	-0.3962439556992531	0.0	1.0446703726785964	-0.33856997915975734	0.0	0.9108878797678389	-0.4336485034845151	0.0	0.9423187039145611	-0.3845880125569562	0.0	0.9739143107830736	-0.34075753004778664	0.0
86	2.8848101265822783	0.9036912768015029	-0.5666420796932077	0.0	0.9053891137596438	-0.5674031995820972	0.0	0.9446602972119796	-0.6740469537681385	0.0	0.9004670614587005	-0.776495876214094	0.0	0.935935010250731	-0.8002979957916436	0.0	0.929918632702075	-0.8028674149149879	0.0	0.8869921492128535	-0.7915948551557392	0.0	0.8983531418181065	-0.5655883822426919	0.0	0.9355381979906596	-0.6773936945027969	0.0	0.9133531113286725	-0.7799518520250506	0.0	0.9424957626130935	-0.7999859209583866	0.0	0.9403324331896875	-0.793909832300532	0.0	0.8947278553190127	-0.7927115376584178	0.0	0.9278345505650213	-0.4205005633142654	0.0	0.9682154253126968	-0.35756700319341184	0.0	0.9646310704072358	-0.3899863098907797	0.0	0.9333366063499641	-0.42980176925687963	0.0	1.0049060136130763	-0.38680781162121936	0.0	1.046629497123275	-0.3298681756199024	0.0	0.9149484870999824	-0.425252465007954	0.0	0.9494400013010583	-0.3745852861935517	0.0	0.9815884348433782	-0.3314044577774689	0.0
87	2.918354430379747	0.9071124972361342	-0.5581731075286079	0.0	0.9078242485885344	-0.5589454546835886	0.0	0.9454987740237625	-0.6679819993842709	0.0	0.8972827628146329	-0.7692836858146848	0.0	0.9305012163269832	-0.7954545904612917	0.0	0.9232793402608334	-0.7974539158111232	0.0	0.8836754094363651	-0.7849201433395788	0.0	0.9032272323855546	-0.5572836945628364	0.0	0.9384548994765382	-0.6700132827938554	0.0	0.9193610580504172	-0.7719200654086115	0.0	0.9463902080876767	-0.7935231319723989	0.0	0.945547733963639	-0.787157247489764	0.0	0.9013305728739393	-0.7842249645626388	0.0	0.9301104715385293	-0.4120687746694694	0.0	0.9688620420199886	-0.3478849666570146	0.0	0.9670439969490727	-0.3806430525828193	0.0	0.9339848446877327	-0.42106303538083445	0.0	1.0049450972244438	-0.3781094589834468	0.0	1.0476556650689444	-0.32178128616197976	0.0	0.9196575792511918	-0.4172896698364151	0.0	0.9572680970624144	-0.3648198948641813	0.0	0.9903926582048928	-0.32192154120844774	0.0
88	2.951898734177215	0.9102450140302373	-0.5509986965970824	0.0	0.9103161254403859	-0.5517381137838415	0.0	0.947276790811775	-0.6623822246492641	0.0	0.8965616369175523	-0.762244711541661	0.0	0.9286632951692366	-0.7906493590857835	0.0	0.9204691392681016	-0.7921548000571474	0.0	0.8829208754077025	-0.7781561477470621	0.0	0.9076001355440837	-0.5502260366036801	0.0	0.9408242482203931	-0.6633098982356379	0.0	0.9236431262630175	-0.7645527574739305	0.0	0.9497519092451225	-0.7878292103143438	0.0	0.9491082941328787	-0.7811442539033767	0.0	0.9068543129696142	-0.7766627898944831	0.0	0.9323589997654647	-0.40496415617024306	0.0	0.9696819836282535	-0.3395326733341518	0.0	0.9692646114540534	-0.3725532323224082	0.0	0.9346901967406003	-0.413463408195507	0.0	1.0041838492010653	-0.3708658205181502	0.0	1.0475001044114836	-0.31499313424346487	0.0	0.9245857613538175	-0.41032493088973077	0.0	0.9648596604237311	-0.356619702074899	0.0	0.9992661213511812	-0.3133266565081054	0.0
89	2.9854430379746835	0.9129973602179984	-0.5456184454668036	0.0	0.9129155661476424	-0.5462886250814234	0.0	0.9499721755830559	-0.6575574377264186	0.0	0.8989368623936687	-0.7562326314491844	0.0	0.9312569957407217	-0.7862160772088814	0.0	0.9225232771036418	-0.7873864665580047	0.0	0.8852772975442298	-0.7722611174690207	0.0	0.9110527324322311	-0.5449046691485334	0.0	0.9422837630198913	-0.6579336390557815	0.0	0.9255133724653954	-0.7585897374303621	0.0	0.9526116576062674	-0.783448060485502	0.0	0.9511870504752034	-0.7764927354685203	0.0	0.9100524287333605	-0.7708484996473249	0.0	0.9344897493027613	-0.3995981511654851	0.0	0.9706008594071268	-0.33294368353315457	0.0	0.9712555858779788	-0.36604845036615746	0.0	0.9355988743626716	-0.40753035336872195	0.0	1.0028490200151854	-0.36535904665630203	0.0	1.0462506691361837	-0.3098041083429994	0.0	0.9292155997325316	-0.4047866534362938	0.0	0.971503649141736	-0.35105140087231057	0.0	1.007209628463682	-0.306461261410245	0.0
90	3.0189873417721516	0.9154499999534041	-0.5422279948938886	0.0	0.9156519511725747	-0.5428696168800281	0.0	0.9530238295709388	-0.6539443154512428	0.0	0.9040478235819246	-0.7522109510920155	0.0	0.9375905368481035	-0.7827739202064883	0.0	0.9287405348160438	-0.7838070032235022	0.0	0.890456919952057	-0.768329231138224	0.0	0.9136749705680997	-0.5415471375820562	0.0	0.9429713304469511	-0.6543309818009186	0.0	0.9254465315083285	-0.7546407259233084	0.0	0.955172298052456	-0.7808547464325463	0.0	0.9524257989550404	-0.7737668515478436	0.0	0.9112890950332507	-0.7673193680400927	0.0	0.9364651059881887	-0.3960778712168172	0.0	0.9715769470050041	-0.32831254187637054	0.0	0.9729969740718147	-0.36130614896256646	0.0	0.9367456654369863	-0.40355007057267034	0.0	1.0013808477606447	-0.361470892593633	0.0	1.0442422955832626	-0.3061258630269133	0.0	0.9331713498229116	-0.4009838029022498	0.0	0.9770744966997713	-0.3485322485709701	0.0	1.013892912876999	-0.3017230770151384	0.0
